<?xml version="1.0" encoding="iso-8859-1"?>
<!-- Generator: Adobe Illustrator 16.0.0, SVG Export Plug-In . SVG Version: 6.00 Build 0)  -->
<!DOCTYPE svg PUBLIC "-//W3C//DTD SVG 1.1//EN" "http://www.w3.org/Graphics/SVG/1.1/DTD/svg11.dtd">
<svg version="1.1" xmlns="http://www.w3.org/2000/svg" xmlns:xlink="http://www.w3.org/1999/xlink" x="0px" y="0px" width="512px"
	 height="512px" viewBox="0 0 512 512" style="enable-background:new 0 0 512 512;" xml:space="preserve">
<g id="Guides_For_Artboard">
</g>
<g id="Artwork">
</g>
<g id="Layer_3">
	<g>
		<circle style="fill:#E6A52E;" cx="255.094" cy="259.639" r="245"/>
		<g>
			<path style="fill:#D46A56;" d="M238.437,268.643c0-29.867-24.211-54.077-54.078-54.077c-20.47,0-38.281,11.376-47.463,28.15
				l50.97,79.879C216.096,320.786,238.437,297.33,238.437,268.643z"/>
			<path style="fill:#F6E0C2;" d="M253.24,161.534c-80.738,0-138.278,41.895-138.849,42.318c-0.521,0.391-1.054,0.756-1.595,1.097
				l24.099,37.767c9.182-16.774,26.993-28.15,47.463-28.15c29.867,0,54.078,24.21,54.078,54.077
				c0,28.687-22.341,52.143-50.571,53.952l45.835,71.83c4.281,6.371,11.401,10.253,19.073,10.405
				c0.156,0.003,0.313,0.004,0.469,0.004c7.5,0,14.564-3.577,19.004-9.646l61.193-88.233l49.549-71.442l19.537-28.171
				c-2.174-0.715-4.28-1.761-6.246-3.152C395.719,203.797,334.408,161.534,253.24,161.534z M270.188,348.137
				c-12.974,0-23.488-10.516-23.488-23.488c0-12.973,10.515-23.489,23.488-23.489c12.971,0,23.486,10.517,23.486,23.489
				C293.674,337.621,283.158,348.137,270.188,348.137z M303.773,262.675c-20.456,0-37.04-16.583-37.04-37.039
				c0-20.457,16.584-37.04,37.04-37.04c20.455,0,37.037,16.583,37.037,37.04C340.811,246.092,324.229,262.675,303.773,262.675z"/>
			<path style="fill:#F6E0C2;" d="M206.691,118.243c11.76-1.918,24.186-3.216,37.19-3.643
				C230.648,115.027,218.228,116.333,206.691,118.243z"/>
			<circle style="fill:#D46A56;" cx="303.773" cy="225.636" r="37.039"/>
			<circle style="fill:#D46A56;" cx="270.188" cy="324.648" r="23.489"/>
			<path style="fill:#735542;" d="M423.483,165.751c-2.917-2.064-71.563-49.88-166.033-51.274c-1.398-0.021-2.801-0.033-4.21-0.033
				c-1.475,0-2.94,0.012-4.4,0.035c-0.258,0.004-0.512,0.012-0.769,0.016c-1.24,0.022-2.478,0.05-3.707,0.088
				c-0.161,0.005-0.321,0.012-0.482,0.017c-13.005,0.427-25.431,1.725-37.19,3.643c-71.362,11.637-118.152,46.137-120.492,47.89
				c-10.403,7.8-12.544,22.58-4.74,32.984c4.629,6.175,11.698,9.437,18.856,9.437c4.298,0,8.628-1.177,12.481-3.604
				c0.541-0.341,1.073-0.706,1.595-1.097c0.57-0.423,58.11-42.318,138.849-42.318c81.168,0,142.479,42.264,143.039,42.656
				c1.966,1.391,4.072,2.437,6.246,3.152c9.566,3.148,20.453-0.122,26.574-8.769C436.611,187.958,434.097,173.264,423.483,165.751z"
				/>
		</g>
	</g>
</g>
</svg>
